<?xml version="1.0" encoding="utf-8"?>
<!DOCTYPE svg PUBLIC "-//W3C//DTD SVG 1.0//EN" "http://www.w3.org/TR/2001/REC-SVG-20010904/DTD/svg10.dtd">
<svg version="1.0" xmlns="http://www.w3.org/2000/svg" width="239px" height="187px" viewBox="0 0 239 187" preserveAspectRatio="xMidYMid meet">
 <g fill="#010205">
  <path d="M113.2 159.3 c0.4 -3.8 5.1 -5.1 18.6 -5.2 9.3 -0.1 11.4 0.2 11.9 1.4 1 2.8 -2.6 4.1 -11.2 4.4 -4.6 0.1 -9.8 0.6 -11.7 1.1 -1.8 0.6 -4.3 1 -5.6 1 -1.9 0 -2.3 -0.5 -2 -2.7z"/>
  <path d="M167 154.8 c0 -3.1 0.8 -4.1 5.7 -7.2 4.3 -2.7 10.6 -3.5 11.8 -1.6 0.8 1.3 -2.2 6.3 -3.3 5.6 -0.4 -0.3 -2.7 0.9 -5.1 2.5 -5.4 3.6 -9.1 3.9 -9.1 0.7z"/>
  <path d="M69.8 154.3 c-1.4 -0.2 -3.8 -1.5 -5.3 -2.9 -1.4 -1.3 -3.1 -2.4 -3.8 -2.4 -0.7 0 -2.9 -0.9 -5 -2 -2 -1.1 -5.2 -2 -6.9 -2 -5.3 -0.1 -11.2 -1.8 -12.8 -3.7 -2 -2.4 -8.7 -6.3 -10.9 -6.3 -1 0 -2.7 -1.7 -4 -4 -1.9 -3.4 -2.3 -5.9 -2.8 -18.7 -0.3 -8.2 -1 -15.7 -1.5 -16.7 -1.9 -3.5 -2.1 -8.3 -0.4 -8.9 0.8 -0.3 1.8 -2.3 2.2 -4.4 0.7 -4.2 5.1 -13.1 7.4 -15.1 0.8 -0.7 3.3 -2.2 5.5 -3.2 2.2 -1 4.6 -2.8 5.3 -3.9 0.7 -1.2 1.9 -2.1 2.7 -2.1 0.8 0 3.4 -0.6 5.7 -1.4 2.4 -0.8 8.2 -1.8 13.1 -2.1 l8.7 -0.7 3.5 3.8 c1.9 2.1 3.8 3.5 4.1 3.1 0.4 -0.4 0.2 -1.3 -0.5 -2 -0.6 -0.8 -0.9 -2.1 -0.5 -3 0.3 -1 -0.3 -2.1 -1.9 -3.2 -1.8 -1.2 -2.6 -2.8 -3.1 -6.5 -0.7 -5.2 -3.2 -8 -5.3 -5.9 -0.7 0.7 -0.7 -0.4 0 -3.3 0.7 -2.4 1.8 -4.7 2.5 -5.1 0.8 -0.5 1.2 -2.2 1 -4.2 -0.2 -3.2 0.5 -5 2 -5 0.4 0 1.9 -1.3 3.4 -2.8 l2.7 -2.7 16.5 0 16.4 0 3.1 2.7 c1.7 1.5 3.1 3.5 3.1 4.5 0 0.9 0.9 3.2 1.9 5 1.1 1.8 1.9 5.1 1.9 7.3 0 4.3 -0.7 6 -6.7 17 -3.3 6.1 -4.2 7.1 -7.2 7.7 -9.5 1.9 -16.8 4.1 -16.4 4.8 0.3 0.5 1.5 0.7 2.8 0.5 1.2 -0.2 3.8 -0.6 5.8 -0.9 4.4 -0.7 12.2 -4.1 13.9 -6.1 0.7 -0.8 1.8 -1.5 2.6 -1.5 0.7 0 1.8 -0.9 2.5 -2.1 0.9 -1.7 1.8 -2 5.1 -1.7 3.8 0.4 3.9 0.3 3.3 -2.2 -1.5 -6 -1.7 -15 -0.4 -16.6 0.7 -0.9 1.2 -2.9 1.1 -4.4 -0.2 -1.5 0.4 -3.2 1.2 -4 2.4 -1.9 2.1 -6 -0.4 -6 -1.1 0 -2 -0.5 -2 -1.1 0 -0.7 1.1 -0.9 2.7 -0.6 1.6 0.3 4.3 -0.1 6.2 -0.9 2.2 -0.9 7.1 -1.4 14.3 -1.4 10.8 0 11.1 0.1 14.9 3.1 2.4 1.9 3.9 3.9 3.9 5.3 0 1.2 0.7 3.2 1.6 4.4 0.9 1.3 1.3 3 1 3.9 -0.3 0.8 -0.1 3.3 0.6 5.5 0.9 3.1 0.9 4.7 -0.1 7.5 -0.9 2.4 -1 3.8 -0.3 4.5 0.8 0.8 0.3 2.1 -1.4 4.3 -1.3 1.7 -2.4 3.7 -2.4 4.4 0 0.7 -2.4 2.3 -5.4 3.6 -3 1.3 -5.7 2.9 -6.1 3.5 -0.4 0.6 -2.5 1.1 -4.8 1.1 -2.3 0 -5.6 -0.1 -7.4 -0.1 -4.7 0 -3.3 2.9 1.6 3.2 9.2 0.4 16.4 -1.6 21.9 -6.4 1.8 -1.5 3.9 -2.8 4.6 -2.8 0.7 0 2.1 -0.9 3.1 -2 2.1 -2.3 4.7 -2.5 9.6 -0.8 3.6 1.2 9.9 5.4 11.2 7.5 0.4 0.7 1.6 1.3 2.7 1.3 3.1 0 5.1 1.2 6 3.5 0.5 1.4 2.9 3.1 6.4 4.6 6 2.4 6.8 3.4 3.6 4.4 -2.6 0.8 -1.8 2.1 3.2 4.6 5.1 2.6 7.9 5.8 7.2 8.1 -0.3 1.1 0.5 2.7 2 4.2 3.1 2.8 3.3 5.1 0.6 9.1 -1.1 1.7 -2 3.7 -2 4.6 0 0.9 -0.7 2.2 -1.5 2.9 -0.8 0.7 -1.5 1.9 -1.5 2.8 0 0.8 -0.6 2.3 -1.4 3.1 -0.7 0.9 -2.1 4.1 -3.2 7.1 -1 3 -2.5 6.3 -3.3 7.3 -1.6 1.9 -16 9.2 -20.3 10.2 -2.6 0.7 -2.8 0.5 -2.8 -2.7 0 -3.2 0.3 -3.5 8 -7.1 4.4 -2 8.5 -3.7 9 -3.7 0.5 0 1.2 -1.1 1.6 -2.5 0.3 -1.4 1 -2.5 1.4 -2.5 0.4 0 1 -1.8 1.4 -4 0.4 -2.6 1.1 -4 2.1 -4 0.9 0 1.5 -1 1.5 -2.5 0 -1.4 -0.4 -2.5 -1 -2.5 -0.5 0 -1 0.8 -1 1.8 0 1 -1.3 3.1 -2.9 4.6 -3 2.8 -7.1 4.2 -16.6 5.3 -2.7 0.3 -5.6 1.1 -6.4 1.7 -2 1.6 -26.6 1.5 -28.2 -0.1 -0.8 -0.8 -3.8 -1.3 -7 -1.3 -4.5 0 -6.1 -0.4 -7.1 -1.8 -1.6 -2.3 -6.9 -4.2 -11.7 -4.2 -2 0 -4.5 -0.7 -5.5 -1.5 -1.1 -0.8 -3.4 -1.5 -5.1 -1.5 -1.9 0 -3.9 -0.8 -5 -2 -1.3 -1.5 -2.2 -1.7 -3.6 -1 -3 1.6 -12.9 1.2 -13.5 -0.5 -0.8 -2 -5.3 -1.9 -10.5 0.1 -3.2 1.3 -5.9 1.5 -12.9 1 -4.9 -0.4 -10.1 -1.3 -11.6 -2.1 -1.4 -0.7 -6.5 -1.7 -11.3 -2 -4.7 -0.4 -9 -1.1 -9.6 -1.4 -0.5 -0.4 -3 -1.3 -5.5 -2 -5.6 -1.5 -12 -4.2 -12 -5.1 0 -0.3 -0.6 -1.5 -1.4 -2.6 -1.3 -1.7 -1.4 -0.4 -0.9 11.1 0.4 8.7 1.1 13.8 2 15.5 1.5 2.5 9.1 8 11.1 8 0.6 0 2.2 1.2 3.5 2.6 2.2 2.4 3.4 2.7 11.6 3.2 6.8 0.3 9.1 0.8 9.1 1.8 0 0.8 1 1.4 2.4 1.4 1.6 0 3.2 1.1 4.6 3 1.2 1.6 3.2 3.3 4.6 3.6 1.8 0.5 2.4 1.3 2.4 3.5 0 1.6 -0.3 2.8 -0.7 2.8 -0.5 -0.1 -2 -0.4 -3.5 -0.6z m110.7 -39.9 c1.7 -0.4 3.7 -1.2 4.5 -1.9 0.8 -0.7 2.9 -1.6 4.7 -2 1.9 -0.4 3.5 -1.4 3.8 -2.6 0.4 -1 1.8 -2.2 3.3 -2.6 3.2 -0.7 6.2 -3.9 6.2 -6.3 0 -2.2 2 -3 7.1 -3 3.4 0 3.9 -0.3 3.9 -2.2 0 -2.2 -2.1 -4 -8.5 -7.4 -1.1 -0.6 -2.2 -2.4 -2.5 -3.9 -0.5 -2.7 -1.6 -3.8 -5.3 -4.9 -0.9 -0.3 -2.2 -1.7 -2.7 -3 -0.7 -1.8 -1.8 -2.5 -4.2 -2.8 -2.2 -0.2 -3.6 -1 -4.3 -2.5 -1.1 -2.6 -10.3 -7.2 -11.3 -5.7 -0.4 0.6 -2.1 1.6 -3.9 2.3 -1.8 0.7 -3.7 1.9 -4.3 2.7 -0.7 0.7 -3.3 2.3 -5.8 3.6 -4 1.9 -6.3 2.3 -15.7 2.3 -9.1 0 -12 -0.4 -17 -2.3 -5.4 -2.1 -6.2 -2.8 -7.9 -6.8 -1 -2.4 -2.3 -4.4 -2.9 -4.4 -0.7 0 -2.5 1.1 -4.1 2.5 -2 1.7 -4.1 2.5 -6.8 2.5 -2.6 0 -3.8 0.4 -3.8 1.4 0 1.4 -2.9 2.6 -6.7 2.6 -1.3 0 -2.3 0.5 -2.3 1 0 1.6 -8.6 1.1 -12.5 -0.7 -1.9 -0.9 -3.5 -2 -3.5 -2.5 0 -0.4 -1.2 -0.8 -2.6 -0.8 -3.5 0 -8.7 -3.3 -10.4 -6.5 -1.3 -2.4 -4.3 -3.4 -5.4 -1.6 -0.3 0.4 -3.8 1.1 -7.8 1.4 -5 0.4 -8 1.2 -9.8 2.6 -1.4 1.1 -4.5 3.2 -7 4.7 -6.2 3.7 -8 5.4 -8 7.6 0 1 -0.7 2.1 -1.5 2.4 -2.2 0.9 -1.8 3.4 0.6 3.4 3.3 0 5.9 1.9 5.9 4.3 0 1.3 1.3 3.3 3.3 4.8 2.6 2.1 4.7 2.7 11.3 3.3 8 0.6 14.4 2.2 14.4 3.4 0 0.4 0.4 1.3 0.8 2 0.7 1 1.6 0.9 4.5 -0.3 2 -0.8 6.6 -1.5 10.2 -1.5 6.4 0 6.5 0 6.5 2.7 l0 2.6 2.3 -2 c5 -4.6 7.9 -5.3 22.1 -5.3 15.9 0 23.1 1.7 28.4 6.8 1.9 1.7 3.8 3.2 4.2 3.2 0.4 0 2 1 3.5 2.2 1.5 1.2 5 2.5 7.7 2.9 2.8 0.5 5.8 1.5 6.8 2.4 1.1 1 3.7 1.5 8.3 1.5 3.6 0 6.9 0.5 7.2 1 0.4 0.6 1.4 0.9 2.3 0.6 1 -0.3 3.1 -0.8 4.7 -1.2z m34.9 -4 c1 -2.5 -0.1 -2.9 -1.4 -0.5 -0.6 1.2 -0.7 2.1 -0.1 2.1 0.5 0 1.2 -0.7 1.5 -1.6z m1.8 -9.6 c-0.9 -0.9 -1.2 -0.7 -1.2 1.2 0 1.9 0.3 2.1 1.2 1.2 0.9 -0.9 0.9 -1.5 0 -2.4z m-58.7 -44.8 c1.4 -2.2 2.5 -5.2 2.5 -6.7 0 -1.6 0.6 -3.9 1.3 -5.3 0.8 -1.4 1 -3.4 0.7 -4.5 -2 -5.7 -3 -9.3 -3 -11.1 0 -2 -3.2 -5.4 -5 -5.4 -0.6 0 -1 -0.4 -1 -1 0 -0.6 -3.2 -1 -7.7 -1 -6.6 0 -8 0.3 -11 2.6 -1.8 1.4 -3.3 3.1 -3.3 3.8 0 0.8 -0.6 1.9 -1.4 2.5 -0.8 0.6 -1.6 2.6 -1.8 4.4 -0.3 1.8 -0.8 3.9 -1.2 4.7 -0.5 1.3 0.9 1.5 9.8 1.5 7.4 0 10.8 0.5 12.1 1.5 2.9 2.4 5.5 8.7 5.5 13.5 0 2.5 0.2 4.5 0.5 4.5 0.3 0 1.6 -1.8 3 -4z m-61 2 c0.3 -0.5 1.4 -1 2.3 -1 1.7 0 8.2 -9.1 8.2 -11.5 0 -0.7 0.9 -2.4 2 -3.8 1.1 -1.4 2 -3.8 2 -5.4 l-0.1 -2.8 -2.6 3 c-2.5 2.8 -3.1 3 -11.2 3.3 -8.3 0.4 -8.8 0.2 -12.8 -2.7 -4.3 -3.1 -4.3 -3.1 -4.3 -9.6 0 -7.2 -0.9 -8 -4.5 -4 -4.9 5.2 -5.5 21.3 -0.9 25.6 1.3 1.2 2.4 3.3 2.4 4.6 0 1.9 0.7 2.4 4 2.9 2.2 0.4 4 1 4 1.5 0 1.2 10.7 1.1 11.5 -0.1z"/>
  <path d="M173.7 54.3 c-1.2 -1.1 -0.8 -2.3 0.8 -2.3 0.8 0 1.5 0.7 1.5 1.5 0 1.6 -1.2 2 -2.3 0.8z"/>
 </g>
 <g fill="#294d79">
  <path d="M111.5 161.5 c-0.5 -0.1 -3 -0.8 -5.5 -1.5 -2.5 -0.7 -8.3 -2.6 -13 -4.1 -8.9 -3.1 -14.8 -3.6 -18.2 -1.8 -1.7 0.9 -2.4 0.8 -3.2 -0.3 -0.6 -0.8 -2.1 -1.8 -3.3 -2.2 -1.2 -0.4 -3.2 -2 -4.3 -3.7 -1.4 -1.8 -3 -2.9 -4.6 -2.9 -1.4 0 -2.4 -0.6 -2.4 -1.4 0 -1 -2.3 -1.5 -9.1 -1.8 -8.2 -0.5 -9.4 -0.8 -11.6 -3.2 -1.3 -1.4 -2.9 -2.6 -3.5 -2.6 -2.1 0 -9.7 -5.6 -11.4 -8.5 -1.5 -2.4 -1.9 -5.3 -2 -14.8 -0.2 -12.8 -0.7 -16.2 -2.9 -18.4 -2 -1.9 -1.9 -5.9 0.1 -6.7 2 -0.8 2.7 -0.2 2.9 2.2 0.2 2.9 1.5 4.2 4.1 4.2 1.6 0 2.8 0.8 3.5 2.4 1.1 2.4 5.1 4.5 12.4 6.6 2.2 0.6 4.7 1.4 5.5 1.8 1.7 0.7 1.2 0.6 11 1.6 4.1 0.5 8.9 1.4 10.5 2.1 5.7 2.6 14.5 2.8 19.6 0.7 5.2 -2.3 13.6 -1.9 15.5 0.6 0.8 1.1 2 1.3 4.5 0.8 9 -1.9 10.4 -1.8 12.3 0.3 1.2 1.3 3.1 2.1 5 2.1 1.7 0 4.2 0.7 5.4 1.6 1.2 0.8 2.2 1 2.2 0.5 0 -1.3 4.7 -1.5 5.5 -0.2 0.3 0.5 2.2 1.5 4.3 2.2 2 0.7 4.3 2 5 3 1 1.4 2.5 1.8 6.8 1.8 3.1 -0.1 6.1 0.5 7 1.2 0.9 0.8 3.6 1.2 6.7 1 5.5 -0.2 7.4 -0.2 12.1 -0.1 1.6 0.1 3.4 -0.4 3.9 -0.9 0.6 -0.6 2.8 -1.1 4.8 -1.1 2.1 0 5 -0.5 6.6 -1.2 1.5 -0.6 3.8 -1 4.9 -0.9 2.7 0.3 9.4 -5.4 9.4 -8 0 -1 0.3 -1.9 0.8 -1.9 1.1 0 4.2 -5.9 4.2 -8 0 -2.5 -1.5 -3.3 -4.6 -2.6 -1.4 0.4 -2.4 1.4 -2.4 2.5 0 2.5 -3 5.7 -6.2 6.4 -1.5 0.4 -2.9 1.6 -3.3 2.6 -0.3 1.2 -1.9 2.2 -3.8 2.6 -1.8 0.4 -3.9 1.3 -4.7 2 -1.8 1.5 -11.8 4 -14.5 3.6 -1.1 -0.2 -2.6 -0.8 -3.3 -1.3 -0.7 -0.7 -3.4 -0.8 -6.6 -0.4 -4.5 0.5 -5.8 0.3 -8 -1.5 -1.4 -1.1 -4.8 -2.4 -7.5 -2.8 -2.7 -0.4 -6.1 -1.7 -7.6 -2.9 -1.5 -1.2 -3.1 -2.2 -3.5 -2.2 -0.4 0 -2.3 -1.5 -4.2 -3.2 -5 -4.8 -12.7 -6.8 -25.4 -6.8 -10.8 0 -14.4 1 -18.9 5.1 -1.1 1 -3.6 2 -5.5 2.1 -3.3 0.3 -3.5 0.1 -3.2 -2.4 0.3 -2.6 0.1 -2.8 -3.2 -2.8 -1.9 0 -5.8 0.9 -8.6 2 -6.6 2.6 -7.8 2.5 -9.2 -0.5 -1.4 -3.1 -5 -4.3 -15.2 -5.1 -6.6 -0.6 -8.7 -1.2 -11.3 -3.3 -2 -1.5 -3.3 -3.5 -3.3 -4.8 0 -2.7 -3 -4.5 -6.8 -4.1 -2.3 0.3 -2.7 -0.1 -3 -2.4 -0.2 -1.7 0.2 -2.8 0.8 -2.8 0.7 0 1 -0.7 0.6 -1.5 -0.3 -0.9 0.3 -1.9 1.5 -2.5 1.1 -0.6 1.7 -1.5 1.5 -1.9 -0.9 -1.4 2.3 -4.9 7.1 -7.6 2.7 -1.5 5.8 -3.6 7 -4.7 2.5 -2.3 8.1 -4 13.8 -4.3 2.2 0 5 -0.7 6.2 -1.3 3.3 -1.8 7 -1.4 9.3 1 1.1 1.2 2 2.5 2 2.9 0 1.8 6.9 5 9.4 4.3 2 -0.5 2.6 -0.2 2.6 0.9 0 1.4 3.5 3.4 5.3 2.9 0.4 -0.1 0.7 0.3 0.7 0.8 0 0.6 0.9 1 2 1 1.1 0 2 -0.4 2 -1 0 -0.5 1.2 -1 2.8 -1 1.5 0 4.4 -0.9 6.5 -2 2 -1.1 4.5 -2 5.5 -2 1.1 0 3.2 -1.1 4.8 -2.5 1.6 -1.4 3.4 -2.5 3.9 -2.5 0.6 0 1.6 -0.9 2.3 -2 1 -1.7 1.6 -1.8 3.2 -1 1.1 0.6 2 1.6 2 2.3 0 0.6 0.8 3.1 1.7 5.4 1.6 3.7 2.5 4.4 7.8 6.5 8.3 3.1 20.1 3.1 26.7 -0.1 2.6 -1.2 5.1 -2.8 5.8 -3.5 0.6 -0.8 2.5 -2 4.3 -2.7 1.8 -0.7 3.8 -2.1 4.5 -3 1.1 -1.6 1.6 -1.7 5 -0.4 6.7 2.4 12.2 5.2 11.6 5.8 -1.3 1.2 1.9 3.7 4.7 3.7 2.1 0 3.1 0.7 4.1 2.8 0.8 1.6 2.1 2.6 3.2 2.5 2.5 -0.2 5.3 2.9 5.2 5.8 -0.1 1.7 0.8 2.8 3 3.9 6.5 3.2 10.9 8.3 8.1 9.3 -1.8 0.6 2.1 4.7 4.5 4.7 1.1 0 1.7 0.4 1.3 0.9 -0.3 0.5 0.3 1.2 1.2 1.4 1.3 0.3 1.4 0.5 0.3 0.6 -2.1 0.2 -6.3 6.9 -5.7 9.2 0.3 1.1 0.1 2.2 -0.4 2.5 -0.5 0.3 -0.7 1 -0.4 1.5 0.4 0.5 -0.1 0.9 -1 0.9 -1.2 0 -1.4 0.7 -1 3 0.5 2.6 0.2 3 -1.6 3 -1.8 0 -1.9 0.2 -0.9 1.5 1 1.2 1 1.5 -0.3 1.5 -1 0 -1.4 0.8 -1.2 2.5 0.1 1.6 -0.3 2.5 -1.2 2.5 -0.8 0 -1.3 0.6 -1.1 1.2 0.5 1.3 -1.4 3.8 -2.9 3.8 -1.5 0.1 -16.8 7.9 -15.5 8 2.4 0 1.1 1.7 -2.8 3.5 -2.3 1 -4.5 2.5 -5 3.4 -0.6 1.2 -1.1 1.3 -2.3 0.3 -1.2 -1 -2.3 -0.8 -6.1 1.5 -2.5 1.5 -4.9 3.6 -5.2 4.6 -0.5 1.6 -1.5 1.7 -11.8 1.1 -9.3 -0.6 -11.7 -0.4 -14.3 1 -2 1 -3.4 1.2 -3.8 0.6 -0.9 -1.4 -14.9 -1.3 -19.7 0.2 -2.2 0.6 -4.2 1.8 -4.5 2.5 -0.5 1.2 -2.4 1.6 -4.8 0.8z"/>
  <path d="M132 66 c0 -0.5 1.1 -1 2.5 -1 1.4 0 2.5 -0.4 2.5 -1 0 -0.5 -0.7 -1 -1.7 -1 -0.9 0 -1.4 -0.2 -1.2 -0.4 0.2 -0.2 3.6 -0.1 7.6 0.3 6.6 0.6 7.3 0.5 8.2 -1.4 0.9 -1.7 1 -1.5 0.8 1.5 -0.1 2.5 -0.7 3.6 -2.1 3.8 -1 0.2 -2.2 -0.2 -2.7 -1 -0.7 -1 -1.2 -1.1 -2.9 0 -2.4 1.4 -11 1.6 -11 0.2z"/>
  <path d="M155 63.9 c0 -0.6 -0.7 -0.9 -1.5 -0.5 -0.9 0.3 -1.5 0 -1.5 -0.9 0 -1 1.1 -1.5 3.5 -1.5 3.9 0 4.6 1.4 1.5 3 -1.5 0.8 -2 0.8 -2 -0.1z"/>
  <path d="M94.5 63.1 c0.3 -0.7 -0.3 -1.1 -1.5 -1.1 -3.1 0 -1.9 -2.4 1.3 -2.8 1.5 -0.2 2.7 -0.8 2.7 -1.3 0 -0.5 1 -0.9 2.3 -0.9 1.6 0 2.8 -1.2 4.3 -4.3 1.6 -3.1 2.8 -4.3 4.8 -4.5 3.3 -0.4 3.3 0.7 -0.4 6.1 -1.6 2.5 -3 5 -3 5.7 0 0.6 -0.8 1 -1.7 0.9 -1.9 -0.2 -4.5 0.6 -7.7 2.2 -1.3 0.7 -1.6 0.7 -1.1 0z"/>
  <path d="M83.6 61.5 c-0.8 -0.8 -1.9 -1.5 -2.5 -1.5 -0.6 0 -1.1 -0.4 -1.1 -1 0 -0.5 1.6 -1 3.5 -1 3.1 0 3.5 0.3 3.5 2.5 0 2.8 -1.2 3.2 -3.4 1z"/>
  <path d="M76.8 59.2 c-1.1 -0.2 -1.8 -1.3 -1.8 -2.7 0 -1.3 -1.2 -3.4 -2.9 -4.8 -2.2 -1.8 -2.8 -3.1 -2.4 -4.6 0.6 -2.4 3.3 -2.9 3.3 -0.6 0 0.8 0.9 1.5 2 1.5 1.4 0 2.2 1.1 3 4.1 1.4 5.2 1 7.6 -1.2 7.1z"/>
  <path d="M125.7 54.4 c-1.4 -1.5 -0.6 -3.4 1.4 -3.4 1.4 0 1.9 0.5 1.7 1.7 -0.3 1.8 -2 2.7 -3.1 1.7z"/>
  <path d="M111 42.5 c0 -3.2 0.2 -3.5 2.9 -3.5 2.3 0 2.8 0.4 2.4 1.8 -0.2 0.9 -1.5 2.5 -2.9 3.5 l-2.4 1.8 0 -3.6z"/>
  <path d="M108.6 34.1 c-2.6 -0.5 -2.8 -0.7 -1.3 -2 1.7 -1.4 2.3 -6.7 0.9 -8.7 -1 -1.5 -5.1 -3.6 -8.7 -4.5 -2.5 -0.6 -2.2 -0.7 2.2 -0.8 4.5 -0.1 5.6 0.3 7.8 2.6 1.4 1.5 2.5 3.5 2.5 4.3 0 0.8 1.1 3.2 2.5 5.2 1.4 2 2.5 3.9 2.5 4.2 0 0.7 -4.6 0.6 -8.4 -0.3z"/>
  <path d="M159 27.6 c0 -2.9 -0.4 -3.4 -3.2 -4.2 -4.3 -1.3 -5.3 -5.4 -1.4 -5.4 1.4 0 2.6 0.5 2.6 1 0 0.6 0.5 1 1 1 2.1 0 4.7 3.6 5.3 7.3 0.5 3.4 0.4 3.7 -1.9 3.7 -2.1 0 -2.4 -0.5 -2.4 -3.4z"/>
  <path d="M71 24.6 c0 -1.9 4.1 -6.3 6 -6.6 0.8 -0.1 4.9 -0.2 9 -0.1 l7.4 0.1 -4.4 2.3 c-3.1 1.5 -4.4 2.7 -4.2 4 0.2 1.1 -0.4 1.7 -1.8 1.7 -1.5 0 -2 -0.6 -2 -2.6 0 -1.7 -0.4 -2.4 -1.2 -2 -0.7 0.3 -2.1 0.9 -3 1.2 -1 0.4 -1.8 1.3 -1.8 2 0 0.8 -0.9 1.4 -2 1.4 -1.1 0 -2 -0.7 -2 -1.4z"/>
 </g>
 <g fill="#84727f">
  <path d="M139 65.5 c0 -1 0.7 -1.5 1.8 -1.3 2.1 0.4 1.9 2.2 -0.2 2.6 -1 0.2 -1.6 -0.3 -1.6 -1.3z"/>
  <path d="M145.6 65.4 c-0.9 -2.4 -0.8 -2.6 1.3 -1.9 1.4 0.4 2.2 -0.4 3.6 -4.1 1.6 -4.4 1.6 -4.7 0 -8.5 -2.9 -6.2 -4.5 -7.1 -12.8 -7.2 -4 0 -7.8 0.3 -8.4 0.6 -0.6 0.4 -0.8 2.5 -0.5 5.2 0.4 4 0.2 4.5 -1.5 4.5 -1.5 0 -2.2 -0.9 -2.7 -3.1 -1 -5 -0.7 -13.6 0.6 -16.4 1.5 -3.2 3.8 -3.3 3.8 0 0 2.6 1.8 3.3 3.7 1.4 1.3 -1.3 8 -0.8 16.5 1.1 5 1.1 5.9 1.1 7.3 -0.3 3.1 -3.1 -0.6 -14.6 -4.7 -14.7 -1.1 0 -1.8 -0.8 -1.8 -2 0 -2.7 2.9 -2.6 8.2 0.4 3.3 1.9 4.3 3 4.3 5 0.1 1.5 0.7 3.4 1.6 4.4 0.8 0.9 1.5 2.8 1.5 4.2 0.1 1.4 0.7 3.9 1.5 5.7 1.1 2.8 1.1 3.4 -0.5 5.2 -1 1.1 -1.9 3.7 -2 5.8 -0.3 5.5 -5.3 12.8 -8.8 12.8 -1.4 0 -3.5 0.8 -4.5 1.8 -2.4 2.1 -4.9 2.2 -5.7 0.1z"/>
  <path d="M84.8 62 c-1.5 -1.1 -3.3 -2 -4.1 -2 -3.2 0 -4.7 -1.3 -5.7 -5 -0.6 -2.4 -1.7 -4 -3 -4.3 -1.4 -0.4 -2 -1.4 -2 -3.4 0 -5.5 -1.3 -10.3 -2.6 -10.3 -1.9 0 -1.8 -1.9 0.1 -2.6 0.8 -0.4 1.5 -1.2 1.5 -2 0 -0.8 0.5 -1.4 1 -1.4 0.6 0 1 1.1 1 2.5 0 1.7 0.6 2.5 1.8 2.5 0.9 0 3.5 0.3 5.7 0.6 2.2 0.3 3.5 0.2 2.9 -0.3 -0.7 -0.4 -1.5 -3.6 -1.9 -7 -0.5 -4.6 -1 -6 -2.1 -5.6 -0.7 0.2 -1.6 1.3 -1.9 2.4 -0.4 1.2 -1.6 1.9 -3.1 1.9 -2.2 0 -2.4 -0.3 -1.9 -2.2 0.4 -1.3 1.9 -3.5 3.3 -5.1 2.6 -2.7 2.7 -2.7 14.6 -2.5 10.6 0.1 11.2 0.2 4.9 0.7 -3.9 0.3 -7.5 1 -8 1.4 -0.4 0.5 -0.9 3.1 -1 5.8 -0.1 4.8 0 5.1 3.9 8 3.1 2.2 5.2 2.9 8.8 2.9 2.5 0 5.1 -0.5 5.8 -1.2 0.7 -0.7 1.2 -0.9 1.2 -0.6 0 0.4 1.4 -0.7 3 -2.4 1.7 -1.6 3 -3.9 3 -5.1 0 -2 0.1 -2 2.3 0.3 1.2 1.4 2.2 2.7 2.1 3 -0.1 0.3 0.6 1 1.5 1.6 1.3 1 1.3 1.4 0.2 2.8 -1 1.2 -1.1 1.9 -0.2 2.9 0.8 1.1 0.5 2.1 -1.4 4.3 -1.4 1.6 -2.8 4 -3.2 5.3 -0.3 1.3 -1.4 3.2 -2.3 4.1 -0.9 0.9 -2.3 3.1 -3.1 4.8 -1 2.2 -2.1 3.2 -3.6 3.2 -1.3 0 -2.3 0.4 -2.3 0.9 0 0.5 -2.1 1.1 -4.7 1.3 -2.7 0.3 -5.5 0.8 -6.4 1.2 -0.9 0.4 -2.5 -0.1 -4.1 -1.4z"/>
  <path d="M126 29.6 c0 -0.7 0.7 -1.9 1.5 -2.6 0.8 -0.7 1.5 -1.8 1.5 -2.5 0 -0.6 0.9 -2 2 -3 2 -1.8 2 -1.7 2 1.9 0 2.1 -0.5 4.6 -1 5.7 -1.2 2.2 -6 2.6 -6 0.5z"/>
 </g>
 <g fill="#867a8d">
  <path d="M130.3 42 c-0.3 -1.1 -1.4 -2 -2.4 -2 -2 0 -2.3 -1.1 -2 -7.3 0.1 -2.2 1 -4.6 2.2 -5.8 1 -1 1.9 -2.5 1.9 -3.3 0 -0.8 1.4 -2.4 3 -3.6 2.7 -1.9 4.1 -2.2 12.5 -1.8 8 0.3 9.7 0.6 11.7 2.6 1.4 1.2 3 2.2 3.6 2.2 1.6 0 1.5 2.7 0 3.3 -1 0.3 -1 0.9 -0.2 2.4 0.7 1.1 1 3.5 0.9 5.4 -0.2 1.9 -0.4 4 -0.4 4.7 -0.1 0.7 -0.5 1 -1.1 0.7 -0.5 -0.3 -1 -0.2 -1 0.4 0 0.5 0.5 1.1 1.2 1.3 0.7 0.3 0.5 0.7 -0.6 1.1 -1 0.4 -1.5 0.3 -1.1 -0.3 0.3 -0.6 -0.1 -1 -0.9 -1 -0.9 0 -1.6 0.5 -1.6 1 0 1.2 -3.7 1.3 -4.4 0.1 -0.3 -0.4 -3.7 -1.6 -7.5 -2.5 -6.6 -1.6 -7.2 -1.6 -9.6 0 -1.4 0.9 -2.4 2.3 -2.1 3 0.3 0.8 0.1 1.4 -0.5 1.4 -0.6 0 -1.3 -0.9 -1.6 -2z"/>
  <path d="M78.5 40.2 c-0.2 -0.2 -2.4 -0.4 -4.9 -0.4 -3.2 0 -4.6 -0.4 -4.6 -1.3 0 -0.7 -0.5 -1.5 -1.1 -1.7 -0.6 -0.2 -0.5 -1.4 0.5 -3.3 0.9 -1.7 1.6 -3.8 1.6 -4.8 0 -2.1 2.7 -6.5 5.5 -8.9 2.3 -2 10.7 -2.6 8.8 -0.7 -0.6 0.6 -0.9 1.8 -0.6 2.6 0.3 0.8 0 1.9 -0.8 2.4 -1.2 0.8 -1.2 1 0 1.8 0.8 0.5 1.2 2 0.9 3.8 -0.4 3.1 1.1 5.3 3.5 5.3 0.8 0 2 0.6 2.6 1.4 0.7 0.8 3 1.7 5.2 2.1 2.2 0.4 3.8 1 3.4 1.3 -0.7 0.7 -19.3 1 -20 0.4z"/>
  <path d="M107.7 36.2 c-0.3 -0.4 0.3 -1.7 1.3 -3 2.1 -2.6 3.6 -1.3 2 1.8 -1.1 2.1 -2.5 2.6 -3.3 1.2z"/>
 </g>
</svg>